# xmcd
#
# Track frame offsets:
# 150
# 13966
# 27757
# 41743
# 51971
# 65194
# 77683
# 90927
# 103229
# 113513
# 126116
# 137774
# 150401
# 163840
# 182264
# 199431
# 210354
# 223810
# 235372
# 246396
# 258232
# 269378
# 284631
# 298045
# 315639
#
# Disc length: 4379 seconds
#
#
# Revision: 0
# Processed by: cddbd v1.5.1PL2 Copyright (c) Steve Scherf et al.
# Submitted via: FreeRIP 2.945 
#
DISCID=77111919
DTITLE=Vern Gosdin - The Voice A 3 CD Collection [CD 3)
DYEAR=1997
DGENRE=Country
TTITLE0=The Number
TTITLE1=The Other Side Of Life
TTITLE2=This Ain't My First Rodeo
TTITLE3=The Wettest Dry County
TTITLE4=Three Or Four Times A Day
TTITLE5=Till The End (Vern Gosdin and Janie Frickie)
TTITLE6=Today My World Slipped Away
TTITLE7=Toe To Toe With The Devil
TTITLE8=Let's Don't And Say We Did (With Ann Street)
TTITLE9=Was It Just The Wine
TTITLE10=Way Down Deep
TTITLE11=Out Of Minds (With Ann Street)
TTITLE12=What A Price I've Paid
TTITLE13=What I Threw Away
TTITLE14=Where Do We Take It From Here
TTITLE15=Set Em' Joe
TTITLE16=Would These Arms Be In Your Way
TTITLE17=You Never Cross My Mind
TTITLE18=Your Bedroom Eyes
TTITLE19=Wings Of Faith
TTITLE20=It's All Coming Back To Me Now
TTITLE21=Heartbreak Hall Of Pain
TTITLE22=Jesus Hold My Hand (With Lou Reid)
TTITLE23=That Just About Does It, Don't It
TTITLE24=I'm Still Crazy
EXTD=VGM Records
EXTT0=
EXTT1=
EXTT2=
EXTT3=
EXTT4=
EXTT5=
EXTT6=
EXTT7=
EXTT8=
EXTT9=
EXTT10=
EXTT11=
EXTT12=
EXTT13=
EXTT14=
EXTT15=
EXTT16=
EXTT17=
EXTT18=
EXTT19=
EXTT20=
EXTT21=
EXTT22=
EXTT23=
EXTT24=
PLAYORDER=
